# AST/ASF file generated using VICON BodyLanguage
# -----------------------------------------------
:version 1.10
:name VICON
:units
  mass 1.0
  length 0.45
  angle deg
:documentation
   .ast/.asf automatically generated from VICON data using
   VICON BodyBuilder and BodyLanguage model FoxedUp or BRILLIANT.MOD
:root
   order TX TY TZ RX RY RZ
   axis XYZ
   position 0 0 0  
   orientation 0 0 0 
:bonedata
  begin
     id 1 
     name lhipjoint
     direction 0.588788 -0.725889 0.355548 
     length 2.37778 
     axis 0 0 0  XYZ
  end
  begin
     id 2 
     name lfemur
     direction 0.34202 -0.939693 0  
     length 6.86393  
     axis 0 0 20  XYZ
    dof rx ry rz
    limits (-160.0 20.0)
           (-70.0 70.0)
           (-60.0 70.0)
  end
  begin
     id 3 
     name ltibia
     direction 0.34202 -0.939693 0   
     length 7.32851   
     axis 0 0 20   XYZ
    dof rx
    limits (-10.0 170.0)
  end
  begin
     id 4 
     name lfoot
     direction 0.0626533 -0.172138 0.983078   
     length 1.98929   
     axis -90 7.62852e-016 20   XYZ
    dof rx rz
    limits (-45.0 90.0)
           (-70.0 20.0)
  end
  begin
     id 5 
     name ltoes
     direction 1.53647e-011 -4.21734e-011 1   
     length 1.00479   
     axis -90 7.62852e-016 20   XYZ
    dof rx
    limits (-90.0 20.0)
  end
  begin
     id 6 
     name rhipjoint
     direction -0.59141 -0.724168 0.354705   
     length 2.38343  
     axis 0 0 0  XYZ 
  end
  begin
     id 7 
     name rfemur
     direction -0.34202 -0.939693 0   
     length 6.95589   
     axis 0 0 -20   XYZ
    dof rx ry rz
    limits (-160.0 20.0)
           (-70.0 70.0)
           (-70.0 60.0)
  end
  begin
     id 8 
     name rtibia
     direction -0.34202 -0.939693 0   
     length 7.32327   
     axis 0 0 -20   XYZ
    dof rx
    limits (-10.0 170.0)
 end
 begin
     id 9 
     name rfoot
     direction -0.0660461 -0.18146 0.981178   
     length 1.85272  
     axis -90 -7.62852e-016 -20   XYZ
    dof rx rz
    limits (-45.0 90.0)
           (-20.0 70.0)
  end
  begin
     id 10 
     name rtoes
     direction -1.53586e-011 -4.21988e-011 1   
     length 0.93746   
     axis -90 -7.62852e-016 -20   XYZ
    dof rx
    limits (-90.0 20.0)
  end
  begin
     id 11 
     name lowerback
     direction -0.0107982 0.991059 0.13299   
     length 1.98691   
     axis 0 0 0   XYZ
    dof rx ry rz
    limits (-20.0 45.0)
           (-30.0 30.0)
           (-30.0 30.0)
  end
  begin
     id 12 
     name upperback
     direction 0.0076296 0.999916 0.0104576   
     length 1.99501   
     axis 0 0 0   XYZ
    dof rx ry rz
    limits (-20.0 45.0)
           (-30.0 30.0)
           (-30.0 30.0)
  end
  begin
     id 13 
     name thorax
     direction 0.01176 0.998615 -0.0512909   
     length 2.03144   
     axis 0 0 0   XYZ
    dof rx ry rz
    limits (-20.0 45.0)
           (-30.0 30.0)
           (-30.0 30.0)
  end
  begin
     id 14 
     name lowerneck
     direction -0.0171909 0.999644 0.0204011   
     length 1.71818   
     axis 0 0 0   XYZ
    dof rx ry rz
    limits (-20.0 45.0)
           (-30.0 30.0)
           (-30.0 30.0)
  end
  begin
     id 15 
     name upperneck
     direction 0.0250902 0.997482 -0.0663316   
     length 1.66199   
     axis 0 0 0   XYZ
    dof rx ry rz
    limits (-20.0 45.0)
           (-30.0 30.0)
           (-30.0 30.0)
  end
  begin
     id 16
     name head
     direction 0.00881535 0.99956 -0.0283365  
     length 1.81545  
     axis 0 0 0   XYZ
    dof rx ry rz
    limits (-20.0 45.0)
           (-30.0 30.0)
           (-30.0 30.0)
  end
  begin
     id 17 
     name lclavicle
     direction 0.840411 0.486876 -0.238035  
     length 3.30409  
     axis 0 0 0   XYZ
    dof ry rz
    limits (-20.0 10.0)
           (0.0 20.0)
  end
  begin
     id 18 
     name lhumerus
     direction 1 -4.48977e-011 -5.16239e-027   
     length 4.62672   
     axis 180 -30 -90   XYZ
    dof rx ry rz
    limits (-60.0 90.0)
           (-90.0 90.0)
           (-90.0 90.0)
  end
  begin
     id 19
     name lradius
     direction 1 -4.48977e-011 -8.71171e-027   
     length 3.11018   
     axis 180 -30 -90   XYZ
    dof rx
    limits (-10.0 170.0)
  end
  begin
     id 20
     name lwrist
     direction 1 -4.48912e-011 -1.03764e-026   
     length 1.55509   
     axis 9.09556e-015 90 90   XYZ
    dof ry
    limits (-180.0 0.0)
 end
  begin
     id 21 
     name lhand
     direction 1 -4.49072e-011 -2.07528e-026   
     length 0.743834   
     axis 1.3242e-014 90 90   XYZ
    dof rx rz
    limits (-90.0 90.0)
           (-45.0 45.0)
  end
  begin
     id 22 
     name lfingers
     direction 1 -4.48909e-011 -4.15056e-026   
     length 0.599698   
     axis 2.64841e-014 90 90   XYZ
    dof rx
    limits (0.0 90.0)
  end
  begin
     id 23
     name lthumb
     direction 0.707107 -6.35013e-011 0.707107   
     length 0.86105   
     axis -90 45 2.85299e-015   XYZ
    dof rx rz
    limits (-45.0 45.0)
           (-45.0 45.0)
  end
  begin
     id 24 
     name rclavicle
     direction -0.835208 0.500237 -0.228452   
     length 3.2716  
     axis 0 0 0   XYZ 
    dof ry rz
    limits (-10.0 20.0)
           (-20.0 0.0)
  end
  begin
     id 25 
     name rhumerus
     direction -1 -4.48978e-011 -5.1953e-028  
     length 4.55919   
     axis 180 30 90   XYZ
    dof rx ry rz
    limits (-90.0 60.0)
           (-90.0 90.0)
           (-90.0 90.0)
  end
  begin
     id 26 
     name rradius
     direction -1 -4.48961e-011 -5.99546e-027   
     length 3.22748   
     axis 180 30 90   XYZ
    dof rx
    limits (-10.0 170.0)
  end
  begin
     id 27 
     name rwrist
     direction -1 -4.48986e-011 -1.03764e-026   
     length 1.61374   
     axis 9.09556e-015 -90 -90   XYZ
    dof ry
    limits (-180.0 0.0)
  end
  begin
     id 28
     name rhand
     direction -1 -4.4899e-011 -2.07528e-026   
     length 0.700882   
     axis 1.3242e-014 -90 -90   XYZ
    dof rx rz
    limits (-90.0 90.0)
           (-45.0 45.0)
  end
  begin
     id 29
     name rfingers
     direction -1 -4.48991e-011 -4.15056e-026   
     length 0.565069   
     axis 2.64841e-014 -90 -90   XYZ
    dof rx
    limits (0.0 90.0)
  end
  begin
     id 30
     name rthumb
     direction -0.707107 -6.34804e-011 0.707107   
     length 0.811329   
     axis -90 -45 -2.85299e-015   XYZ
    dof rx rz
    limits (-45.0 45.0)
           (-45.0 45.0)
  end
:hierarchy
  begin
    root lhipjoint rhipjoint lowerback
    lhipjoint lfemur
    lfemur ltibia
    ltibia lfoot
    lfoot ltoes
    rhipjoint rfemur
    rfemur rtibia
    rtibia rfoot
    rfoot rtoes
    lowerback upperback
    upperback thorax
    thorax lowerneck lclavicle rclavicle
    lowerneck upperneck
    upperneck head
    lclavicle lhumerus
    lhumerus lradius
    lradius lwrist
    lwrist lhand lthumb
    lhand lfingers
    rclavicle rhumerus
    rhumerus rradius
    rradius rwrist
    rwrist rhand rthumb
    rhand rfingers
  end

#!OML:ASF F:\VICON\USERDATA\INSTALL\SteveWalk\SteveWalk.ASF
:FULLY-SPECIFIED
:DEGREES
32
root -0.654878 16.4323 -38.08 16.9626 0.896428 0.544419
lowerback -16.789 0.175856 0.000737581
upperback -4.48471 0.156335 1.37864
thorax 4.61411 0.0784165 1.48887
lowerneck -2.68798 -1.84597 1.37161
upperneck 11.6819 -2.07217 -4.66212
head 4.25841 -1.17842 -1.90832
rclavicle -4.87333e-015 -1.47101e-014
rhumerus -22.9506 -2.9732 -85.1053
rradius 38.4604
rwrist -17.6311
rhand -15.792 -44.1199
rfingers 7.12502
rthumb 10.4008 -73.8426
lclavicle -4.87333e-015 -1.47101e-014
lhumerus -55.5874 33.2433 52.3986
lradius 10.582
lwrist -52.0174
lhand -9.9181 -16.8915
lfingers 7.12502
lthumb 16.0625 12.4627
rfemur -20.7873 -5.40717 23.0053
rtibia 33.4214
rfoot -27.1487 6.76319
rtoes -4.15074
lfemur -47.1764 6.58847 -24.5029
ltibia 50.175
lfoot -12.183 5.77317
ltoes -1.049
33
root -0.65078 16.4224 -37.8733 16.9401 0.447951 0.33093
lowerback -16.9307 0.332453 0.0141022
upperback -4.47255 0.356134 1.4165
thorax 4.69731 0.176249 1.56381
lowerneck -1.9721 -1.78971 1.20818
upperneck 11.3605 -2.00617 -4.55035
head 4.00544 -1.13828 -1.81587
rclavicle -8.94376e-015 -4.77083e-015
rhumerus -22.0909 -1.76948 -85.0831
rradius 39.5528
rwrist -17.4719
rhand -14.6972 -41.3345
rfingers 7.12502
rthumb 11.4568 -71.0015
lclavicle -8.94376e-015 -4.77083e-015
lhumerus -57.4231 33.1959 50.6467
lradius 10.4408
lwrist -53.4325
lhand -9.46854 -16.9697
lfingers 7.12502
lthumb 16.4954 12.3491
rfemur -19.5775 -5.80791 23.0863
rtibia 32.5471
rfoot -27.092 7.76136
rtoes -3.68288
lfemur -47.3824 6.48764 -24.1475
ltibia 47.1542
lfoot -11.9962 6.50852
ltoes -2.45469
34
root -0.645654 16.4189 -37.6651 16.9091 0.0882202 0.23444
lowerback -17.0676 0.390946 -0.0928231
upperback -4.44905 0.445041 1.49098
thorax 4.79148 0.218447 1.72381
lowerneck -1.4609 -1.7313 1.10914
upperneck 11.1252 -1.91734 -4.66781
head 3.82515 -1.0963 -1.81922
rclavicle -2.88548e-015 5.56597e-015
rhumerus -20.7772 -0.779544 -84.9769
rradius 40.489
rwrist -16.8204
rhand -13.5301 -40.8626
rfingers 7.12502
rthumb 12.5821 -70.4637
lclavicle -2.88548e-015 5.56597e-015
lhumerus -58.4551 32.0968 50.6951
lradius 10.466
lwrist -52.7302
lhand -9.79348 -17.2262
lfingers 7.12502
lthumb 16.1825 12.1183
rfemur -18.3425 -6.11423 23.0204
rtibia 31.724
rfoot -27.0751 8.47097
rtoes -2.94568
lfemur -47.4469 6.21175 -23.7975
ltibia 44.0357
lfoot -11.903 7.17567
ltoes -3.09824
35
root -0.633279 16.4154 -37.4627 17.2324 -0.507784 0.0812446
lowerback -17.3101 0.625959 -0.0668386
upperback -4.09726 0.745327 1.45266
thorax 5.28738 0.361523 1.73963
lowerneck -3.01144 -1.67148 1.21712
upperneck 11.3404 -1.83147 -4.71099
head 4.20936 -1.06895 -1.8856
rclavicle 2.73329e-015 1.19271e-015
rhumerus -18.6246 0.0713262 -84.9902
rradius 41.4091
rwrist -16.8592
rhand -13.6616 -39.1585
rfingers 7.12502
rthumb 12.4553 -68.7674
lclavicle 2.73329e-015 1.19271e-015
lhumerus -57.7024 30.2039 53.2623
lradius 10.9628
lwrist -49.3931
lhand -9.72852 -16.8508
lfingers 7.12502
lthumb 16.2451 12.4887
rfemur -17.5346 -6.55441 22.9404
rtibia 30.8988
rfoot -27.1157 9.70425
rtoes -2.27491
lfemur -47.9192 6.05922 -23.4869
ltibia 40.803
lfoot -11.2783 8.19889
ltoes -6.41529
36
root -0.615528 16.4037 -37.2701 17.9476 -1.61306 -0.368122
lowerback -16.8063 1.12502 0.278382
upperback -4.7332 1.35769 1.40498
thorax 4.33252 0.672918 1.59936
lowerneck -3.54253 -1.5889 1.03453
upperneck 11.977 -1.72134 -4.38686
head 4.55296 -1.01752 -1.7619
rclavicle -1.67911e-014 -8.74653e-015
rhumerus -19.1866 1.93569 -84.9407
rradius 44.0598
rwrist -17.8854
rhand -14.4421 -38.5024
rfingers 7.12502
rthumb 11.7028 -68.1555
lclavicle -1.67911e-014 -8.74653e-015
lhumerus -57.8779 26.5641 56.3428
lradius 11.8377
lwrist -44.4748
lhand -9.14398 -16.1684
lfingers 7.12502
lthumb 16.8078 13.1241
rfemur -17.2279 -6.75226 23.011
rtibia 30.0304
rfoot -27.0368 11.2184
rtoes -2.14115
lfemur -48.8329 6.25368 -22.9436
ltibia 37.537
lfoot -10.2187 9.26925
ltoes -8.73726
37
root -0.602137 16.3849 -37.0412 17.7022 -0.612128 -0.0488896
lowerback -17.1911 0.696599 -0.0347072
upperback -4.32001 0.83722 1.43939
thorax 4.98432 0.409894 1.72156
lowerneck -3.55028 -1.48524 0.704188
upperneck 11.4771 -1.60768 -4.05224
head 4.37881 -0.955995 -1.57181
rclavicle -2.55935e-015 1.78906e-014
rhumerus -17.6681 3.15711 -84.7613
rradius 45.2146
rwrist -19.0257
rhand -15.0695 -39.3169
rfingers 7.12502
rthumb 11.0977 -69.0035
lclavicle -2.55935e-015 1.78906e-014
lhumerus -58.5289 26.0789 56.493
lradius 11.9573
lwrist -43.3497
lhand -9.46393 -16.4203
lfingers 7.12502
lthumb 16.4998 12.8981
rfemur -15.4817 -7.83334 22.7558
rtibia 29.1443
rfoot -27.3227 11.2861
rtoes -2.48905
lfemur -48.4839 4.81039 -22.6116
ltibia 34.2109
lfoot -9.48103 9.49695
ltoes -9.46256
38
root -0.597744 16.3667 -36.824 17.6913 -0.978124 -0.233699
lowerback -17.121 0.77128 -0.0682568
upperback -4.52989 0.939844 1.50621
thorax 4.71882 0.462482 1.82853
lowerneck -2.4871 -1.47018 0.436898
upperneck 11.0689 -1.59688 -3.94937
head 4.02245 -0.944389 -1.46247
rclavicle 1.50517e-014 7.95139e-016
rhumerus -17.0991 3.86911 -84.4985
rradius 46.6843
rwrist -18.7246
rhand -13.6509 -44.9674
rfingers 7.12502
rthumb 12.4657 -74.5756
lclavicle 1.50517e-014 7.95139e-016
lhumerus -60.1968 25.2053 56.0661
lradius 12.2136
lwrist -42.3098
lhand -10.0878 -16.4545
lfingers 7.12502
lthumb 15.899 12.9128
rfemur -14.1981 -7.90493 22.6931
rtibia 28.2407
rfoot -27.4388 11.7194
rtoes -3.67916
lfemur -48.3247 4.43333 -21.9156
ltibia 30.9537
lfoot -8.85154 10.1619
ltoes -10.0934
39
root -0.594845 16.3459 -36.6099 17.8669 -2.02242 -0.220542
lowerback -16.9029 1.08002 -0.434263
upperback -4.77384 1.41571 1.42818
thorax 4.32106 0.699223 2.04137
lowerneck -2.3151 -1.5453 0.50982
upperneck 11.1285 -1.68541 -4.11065
head 4.0065 -0.991174 -1.5316
rclavicle 2.56681e-014 2.42517e-014
rhumerus -16.542 4.74481 -84.2715
rradius 47.7911
rwrist -18.7591
rhand -16.1065 -38.8457
rfingers 7.12502
rthumb 10.0974 -68.5835
lclavicle 2.56681e-014 2.42517e-014
lhumerus -61.2945 23.8946 56.4339
lradius 12.5426
lwrist -40.5186
lhand -10.7012 -15.7484
lfingers 7.12502
lthumb 15.3083 13.665
rfemur -13.1656 -7.43678 22.2437
rtibia 27.276
rfoot -27.5423 11.9885
rtoes -6.12354
lfemur -48.3061 4.55982 -21.5601
ltibia 27.7367
lfoot -8.8943 10.6842
ltoes -7.92712
40
root -0.582241 16.3218 -36.4014 18.2173 -2.77569 -0.35339
lowerback -16.9029 1.34903 -0.538596
upperback -4.94057 1.78911 1.40399
thorax 4.12747 0.885816 2.14616
lowerneck -2.5738 -1.56853 0.548573
upperneck 11.2691 -1.70687 -4.17225
head 4.10677 -1.00655 -1.56755
rclavicle -2.16334e-014 -4.37326e-015
rhumerus -15.7029 5.70052 -83.9393
rradius 48.7666
rwrist -19.4586
rhand -16.3524 -36.3395
rfingers 7.12502
rthumb 9.8602 -66.0886
lclavicle -2.16334e-014 -4.37326e-015
lhumerus -62.4538 23.5677 55.6912
lradius 12.4094
lwrist -40.077
lhand -11.2755 -15.7302
lfingers 7.12502
lthumb 14.755 13.7246
rfemur -12.2767 -7.24517 21.9607
rtibia 26.2848
rfoot -27.3286 12.9724
rtoes -6.13142
lfemur -48.6074 4.62057 -21.0709
ltibia 24.7204
lfoot -9.04022 10.7834
ltoes -5.85242
